<svg width="80" height="35" viewBox="0 0 80 35" fill="none" xmlns="http://www.w3.org/2000/svg">
<path d="M63.261 18.4391C63.261 16.5611 63.261 14.683 63.2051 12.805C63.0931 10.8131 61.5815 10.5285 59.6221 10.4716C54.6956 10.3578 49.8251 10.4716 44.9545 10.8131C43.8908 10.87 43.275 11.6099 43.1631 12.3497C43.0511 12.5773 42.9951 12.805 42.9951 13.0326C42.9391 14.8538 42.9951 16.6749 43.1631 18.5529C43.219 19.4066 43.331 20.2603 43.443 21.057C43.5549 21.8538 43.5549 22.7643 44.2827 23.3903C45.0105 23.9594 45.9062 23.9025 46.802 23.9025C47.9216 23.9025 49.0973 23.9025 50.2169 23.9025C52.3443 23.9025 54.4157 23.8456 56.543 23.8456C57.4948 23.8456 58.5025 23.8456 59.4542 23.8456C60.3499 23.8456 61.3576 23.9594 62.1974 23.5611C63.9328 22.5936 63.261 19.9188 63.261 18.4391Z" fill="#FBB03B"/>
<path d="M18.4745 16.618C18.8663 16.2766 19.2582 16.1058 19.6501 16.1058C19.874 16.1058 20.042 16.1627 20.2659 16.2766C20.4339 16.3904 20.6578 16.5611 20.8817 16.7888C21.1057 17.1302 21.2176 17.3579 21.3296 17.5855C21.4416 17.8132 21.4416 17.9839 21.4416 18.1546C21.4416 18.553 21.2176 18.9514 20.8258 19.3497C20.154 19.9188 19.4822 20.3741 18.6984 20.8294C17.9146 21.2847 17.1309 21.6262 16.2911 21.9107C15.4514 22.1953 14.6116 22.4229 13.7159 22.5936C12.8202 22.7644 11.9804 22.8213 11.0847 22.8213C9.96501 22.8213 8.95731 22.7075 8.0056 22.4229C7.05389 22.1384 6.15815 21.74 5.43037 21.2278C4.70259 20.7156 4.03079 20.0896 3.52694 19.3497C3.02309 18.6099 2.63121 17.7562 2.40728 16.8457C2.29531 16.4473 2.18335 16.2197 2.07138 16.1058C1.95941 15.992 1.79146 15.9351 1.56753 15.9351C1.06368 15.9351 0.671799 15.8213 0.391883 15.5367C0.111966 15.2522 0 14.9107 0 14.3985C0 14.2278 0 14.0571 0.0559832 14.0001V13.6587C0.111966 13.1465 0.279916 12.805 0.447866 12.5774C0.671799 12.3497 0.951715 12.2359 1.39958 12.2359H1.6795C2.23933 12.2359 2.63121 11.9514 2.85514 11.4392C3.30301 10.4717 3.80686 9.61803 4.47866 8.82128C5.15046 8.02454 5.87824 7.34161 6.662 6.82941C7.50175 6.26031 8.3415 5.86193 9.29321 5.52047C10.2449 5.23592 11.1407 5.06519 12.1484 5.06519C13.1561 5.06519 14.1078 5.23592 14.9475 5.52047C15.8433 5.80502 16.571 6.2034 17.2428 6.7725C17.9146 7.2847 18.4185 7.91071 18.7544 8.59364C19.1463 9.27657 19.3142 10.0733 19.3142 10.8701C19.3142 11.4392 19.2022 11.9514 18.9783 12.4066C18.7544 12.8619 18.4745 13.2603 18.0266 13.6587C17.6347 14.0001 17.1309 14.2847 16.571 14.5123C16.0112 14.74 15.3394 14.8538 14.6116 14.9676L7.55773 15.7075C7.27782 15.7075 7.05389 15.7644 6.88594 15.9351C6.71799 16.0489 6.60602 16.2766 6.60602 16.5042C6.60602 16.8457 6.71799 17.1871 6.9979 17.5286C7.27782 17.8701 7.61372 18.1546 8.06158 18.3823C8.50945 18.6099 9.0133 18.8375 9.57313 19.0083C10.133 19.179 10.7488 19.2359 11.3646 19.2359C11.9244 19.2359 12.5402 19.179 13.1561 19.0652C13.7719 18.9514 14.3877 18.7806 15.0035 18.553C15.6193 18.3253 16.1791 18.0408 16.739 17.7562C17.4108 17.3579 17.9706 17.0164 18.4745 16.618ZM13.9398 11.2684C14.1638 11.2115 14.3317 11.1546 14.4437 10.9839C14.6116 10.8132 14.6676 10.6424 14.6676 10.4148C14.6676 10.1871 14.6116 10.0164 14.4437 9.84567C14.2757 9.67494 14.1078 9.50421 13.8279 9.33348C13.5479 9.16275 13.268 9.04893 12.9321 8.99202C12.5962 8.9351 12.2603 8.87819 11.8684 8.87819C11.3086 8.87819 10.7488 8.9351 10.133 9.10584C9.57313 9.27657 9.0133 9.50421 8.56543 9.73185C8.11757 10.0164 7.72568 10.301 7.38978 10.6424C7.10987 10.9839 6.94192 11.2684 6.94192 11.6099C6.94192 11.9514 7.10987 12.0652 7.50175 12.0652C7.72568 12.0652 8.11757 12.0652 8.62142 12.0083C9.12526 11.9514 9.6851 11.8945 10.3569 11.8375C10.9727 11.7806 11.5885 11.6668 12.2603 11.553C12.8761 11.4392 13.436 11.3253 13.9398 11.2684Z" fill="#1E1E1E"/>
<path d="M20.6578 6.6586C20.6578 6.1464 20.8817 5.69112 21.3856 5.40656C21.8334 5.12201 22.5612 5.00819 23.401 5.00819C23.6249 5.00819 23.7928 5.00819 23.9608 5.0651C24.1287 5.12201 24.2967 5.23583 24.4086 5.40656C24.5206 5.5773 24.6326 5.80494 24.7446 6.03258C24.8565 6.31713 24.9685 6.6586 25.0804 7.11388C25.1924 7.56917 25.3044 7.85372 25.4163 7.85372C25.5283 7.85372 25.6403 7.62608 25.7522 7.2277C25.9762 6.43095 26.3121 5.74803 26.704 5.17892C27.0958 4.60982 27.5437 4.09762 28.0476 3.69925C28.6074 3.35778 29.1112 3.07323 29.7271 2.84559C30.3429 2.67486 30.9587 2.56104 31.5745 2.56104C32.9181 2.56104 34.1497 2.84559 35.2694 3.30087C36.3891 3.81307 37.3968 4.49599 38.2365 5.40656C39.0763 6.31713 39.6921 7.34152 40.1959 8.53664C40.6438 9.73177 40.9237 11.0407 40.9237 12.4635C40.9237 13.9431 40.6438 15.309 40.1399 16.6179C39.6361 17.87 38.9083 18.9513 38.0126 19.9188C37.1168 20.8293 35.9972 21.5692 34.7655 22.0814C33.5339 22.5936 32.1343 22.8781 30.6228 22.8781L29.5591 22.7643C28.9433 22.7643 28.6634 23.1058 28.6634 23.8456L29.7271 33.3497C29.7271 33.5773 29.6151 33.8049 29.5031 33.9757C29.3352 34.2033 29.1672 34.374 28.9433 34.4879C28.7194 34.6586 28.4394 34.7724 28.1035 34.8293C27.7676 34.8862 27.4317 34.9431 27.0958 34.9431C26.1441 34.9431 25.5843 34.6017 25.5283 33.9757C25.2484 31.4716 24.9125 29.0814 24.5766 26.8049C24.2407 24.5285 23.9048 22.4228 23.5129 20.4879C23.177 18.5529 22.7851 16.7887 22.4492 15.1383C22.1133 13.5448 21.8334 12.122 21.5535 10.9838C21.2736 9.78868 21.1056 8.8212 20.9377 8.08136C20.7697 7.39843 20.6578 6.88624 20.6578 6.6586ZM27.2638 12.122C27.2638 13.0326 27.3198 13.8862 27.3758 14.7968C27.4317 15.6505 27.5437 16.6179 27.7117 17.6423C27.7676 18.2684 28.1035 18.6098 28.7194 18.7236C29.0553 18.7805 29.4471 18.8944 29.895 18.9513C30.3429 19.0082 30.6788 19.0651 31.0147 19.0651C31.9104 19.0651 32.6942 18.9513 33.366 18.6667C34.0937 18.3822 34.6536 18.0407 35.1574 17.5285C35.6613 17.0163 36.0532 16.4472 36.3331 15.7643C36.613 15.0814 36.725 14.3415 36.725 13.4879C36.725 12.4635 36.613 11.5529 36.3331 10.6423C36.0532 9.78868 35.7173 8.99193 35.2134 8.36591C34.7655 7.7399 34.2057 7.2277 33.5899 6.82933C32.9741 6.43095 32.3023 6.26022 31.5185 6.26022C30.9027 6.26022 30.2869 6.37404 29.783 6.6586C29.2792 6.94315 28.8313 7.34152 28.4394 7.85372C28.0476 8.36591 27.7676 8.99193 27.5997 9.67486C27.3758 10.4716 27.2638 11.2684 27.2638 12.122Z" fill="#1E1E1E"/>
<path d="M46.2421 8.59342C46.2421 8.19504 46.4661 7.85358 46.8579 7.56903C47.2498 7.28448 47.8097 7.17065 48.4815 7.17065C49.7131 7.17065 50.3289 7.51212 50.4409 8.25195C50.4968 8.76415 50.5528 9.33326 50.6088 9.95927C50.6648 10.5853 50.7208 11.2682 50.7768 12.0081C50.8327 12.7479 50.8887 13.4877 50.9447 14.2276C51.0007 14.9674 51.0567 15.7641 51.0567 16.504C51.1127 17.2438 51.1127 17.9837 51.1686 18.6666C51.1686 19.3495 51.2246 19.9755 51.2246 20.5446C51.2246 21.1137 51.0007 21.569 50.4968 21.8536C49.993 22.1381 49.3212 22.3089 48.3695 22.3089C47.9216 22.3089 47.6417 22.195 47.3618 22.0243C47.1379 21.8536 47.0259 21.6259 47.0259 21.2845C47.0259 19.6341 46.9699 18.0975 46.9139 16.6747C46.802 15.252 46.746 13.9999 46.634 12.8617C46.522 11.7235 46.4101 10.8129 46.3541 10.0731C46.2981 9.33326 46.2421 8.87797 46.2421 8.59342Z" fill="#1E1E1E"/>
<path d="M55.2554 8.59342C55.2554 8.19504 55.4794 7.85358 55.8713 7.56903C56.2631 7.28448 56.823 7.17065 57.4948 7.17065C58.7264 7.17065 59.3422 7.51212 59.4542 8.25195C59.5102 8.76415 59.5661 9.33326 59.6221 9.95927C59.6781 10.5853 59.7341 11.2682 59.7901 12.0081C59.8461 12.7479 59.902 13.4877 59.958 14.2276C60.014 14.9674 60.07 15.7641 60.07 16.504C60.126 17.2438 60.126 17.9837 60.182 18.6666C60.182 19.3495 60.2379 19.9755 60.2379 20.5446C60.2379 21.1137 60.014 21.569 59.5102 21.8536C59.0063 22.1381 58.3345 22.3089 57.3828 22.3089C56.9349 22.3089 56.655 22.195 56.3751 22.0243C56.1512 21.8536 56.0392 21.6259 56.0392 21.2845C56.0392 19.6341 55.9832 18.0975 55.9272 16.6747C55.8153 15.252 55.7593 13.9999 55.6473 12.8617C55.5354 11.7235 55.4234 10.8129 55.3674 10.0731C55.3114 9.33326 55.2554 8.87797 55.2554 8.59342Z" fill="#1E1E1E"/>
<path d="M74.1777 4.09758C74.9055 4.1545 75.5773 4.26832 76.1931 4.49596C76.8649 4.7236 77.4248 5.06506 77.9286 5.40653C78.4325 5.8049 78.8244 6.20328 79.1043 6.65856C79.3842 7.11384 79.5521 7.56913 79.4962 8.08132C79.4962 8.36588 79.3842 8.65043 79.2722 8.93498C79.1603 9.21954 78.9363 9.44718 78.7684 9.67482C78.5444 9.90246 78.3205 10.0163 78.0406 10.1301C77.7607 10.2439 77.4808 10.3008 77.2008 10.3008C76.8649 10.3008 76.585 10.1301 76.3611 9.90246C76.1372 9.67482 75.8572 9.39027 75.5773 9.0488C75.2974 8.76425 74.9615 8.4797 74.6256 8.19515C74.2897 7.91059 73.8418 7.79677 73.338 7.79677C72.8341 7.79677 72.3863 7.85368 71.9944 8.08132C71.6025 8.30897 71.2666 8.59352 70.9867 8.99189C70.7068 9.39027 70.4828 9.90246 70.3149 10.4716C70.1469 11.0407 70.035 11.6667 70.035 12.3496C69.923 14.2846 70.2029 15.7643 70.8747 16.7886C71.5465 17.813 72.5542 18.3821 73.8978 18.439C74.5136 18.496 75.0735 18.3821 75.5213 18.2114C75.9692 18.0407 76.4171 17.813 76.753 17.5854C77.0889 17.3577 77.4248 17.1301 77.7047 16.9594C77.9846 16.7886 78.3205 16.6748 78.6004 16.6748C78.7684 16.6748 78.9363 16.7317 79.1043 16.8456C79.2722 16.9594 79.3842 17.0732 79.4962 17.2439C79.6081 17.4147 79.7201 17.5854 79.7761 17.813C79.8321 17.9838 79.888 18.2114 79.888 18.3821C79.888 18.8374 79.6081 19.2927 79.1602 19.748C78.7124 20.2033 78.0966 20.6016 77.4248 21C76.697 21.3415 75.9132 21.626 75.0735 21.8537C74.2337 22.0813 73.394 22.1382 72.6102 22.0813C71.5465 22.0244 70.5948 21.7399 69.6991 21.2846C68.8033 20.8293 68.0756 20.2033 67.4598 19.4065C66.8439 18.6098 66.3961 17.6992 66.0602 16.6179C65.7243 15.5366 65.6123 14.3984 65.6683 13.1464C65.7243 11.7805 66.0042 10.5285 66.4521 9.39027C66.8999 8.25206 67.5157 7.28458 68.2435 6.48783C68.9713 5.69108 69.867 5.06506 70.8747 4.60978C71.9944 4.21141 73.0581 4.04067 74.1777 4.09758Z" fill="#1E1E1E"/>
<path d="M48.9293 4.21138C48.5374 4.3252 48.2015 4.38211 47.8097 4.3252C47.4178 4.3252 47.1379 4.21138 46.802 4.09756C46.522 3.98374 46.2421 3.7561 46.0182 3.52846C45.7943 3.30081 45.6263 3.01626 45.5703 2.6748C45.4024 2.10569 45.5143 1.5935 45.8502 1.13821C46.1861 0.682927 46.746 0.341463 47.4738 0.113821C47.8097 0 48.1455 0 48.5374 0C48.8733 0.0569106 49.2092 0.113821 49.4891 0.284553C49.7691 0.455285 50.049 0.626016 50.2729 0.853659C50.4968 1.13821 50.6088 1.42276 50.7208 1.70732C50.8887 2.27642 50.7768 2.78862 50.4409 3.2439C50.105 3.69919 49.6011 3.98374 48.9293 4.21138Z" fill="#1E1E1E"/>
<path d="M58.0546 5.12208C57.6627 5.12208 57.2708 5.06517 56.9349 4.95135C56.599 4.83753 56.2631 4.66679 56.0392 4.43915C55.8153 4.26842 55.5913 3.98387 55.4234 3.69931C55.2554 3.41476 55.1995 3.0733 55.1995 2.73183C55.1995 2.16273 55.4234 1.70744 55.8713 1.30907C56.3191 0.967607 56.9349 0.796875 57.7187 0.796875C58.0546 0.796875 58.3905 0.853786 58.7264 0.967607C59.0623 1.08143 59.3422 1.25216 59.5662 1.4798C59.7901 1.70744 60.014 1.93509 60.182 2.27655C60.3499 2.5611 60.4059 2.90257 60.4059 3.18712C60.4059 3.75622 60.182 4.26842 59.7901 4.60988C59.3422 4.95135 58.7824 5.12208 58.0546 5.12208Z" fill="#1E1E1E"/>
</svg>
